<svg width="140" height="140" viewBox="0 0 140 140" fill="none" xmlns="http://www.w3.org/2000/svg">
<path d="M69.9993 30.8722C63.1475 27.0303 55.1948 24.8145 46.7163 24.8145V70.0079C46.7163 53.2856 56.0821 38.6993 69.9993 30.8881V30.8722Z" fill="#BEBDBD"/>
<path d="M46.7008 24.8145C20.986 24.8145 0.134766 45.0439 0.134766 70.0079C0.134766 94.9719 20.986 115.185 46.7008 115.185V24.8145Z" fill="#112D8C"/>
<path d="M93.2825 70.0079H139.865C139.865 45.0599 119.014 24.8145 93.2825 24.8145C84.7876 24.8145 76.8513 27.0303 69.9995 30.8722C83.9167 38.6834 93.2825 53.2696 93.2825 69.992V70.0079Z" fill="#BEBDBD"/>
<path d="M93.2825 70.008C93.2825 86.7304 83.9167 101.317 69.9995 109.128C76.8513 112.97 84.804 115.185 93.2825 115.185C118.997 115.185 139.865 94.9561 139.865 70.008H93.2825Z" fill="#7E7F80"/>
<path d="M46.7008 70.0079V115.185C55.1957 115.185 63.132 112.97 69.9838 109.128C83.901 101.317 93.2668 86.7303 93.2668 70.0079H46.6843H46.7008Z" fill="#BEBDBD"/>
<path d="M46.7009 70.0079H93.2834C93.2834 53.2855 83.9176 38.6993 70.0004 30.8881C56.0831 38.6993 46.7174 53.2855 46.7174 70.0079H46.7009Z" fill="#E3E3E3"/>
</svg>
