<svg width="198" height="23" viewBox="0 0 198 23" fill="none" xmlns="http://www.w3.org/2000/svg">
<g clip-path="url(#clip0_1_485)">
<path d="M80.9088 13.7292V22.6499H68.4539V13.7292H80.9088ZM71.5935 16.3004V20.0787H77.7733V16.3004H71.5935Z" fill="#717071"/>
<path d="M68.57 8.20049V0.535166H65.4346V8.20049V11.2465H68.57H74.671V8.20049H68.57Z" fill="#717071"/>
<path d="M80.9548 8.23671V0.511023H77.8193V8.23671V11.2827H80.9548H83.8083V8.23671H80.9548Z" fill="#717071"/>
<path d="M42.8143 0.490902V3.53289H48.4051V11.2143H51.5406V3.53289V0.490902H42.8143Z" fill="#717071"/>
<path d="M57.8775 8.22064V0.515072H54.742V8.22064V11.2666H57.8775H60.731V8.22064H57.8775Z" fill="#717071"/>
<path d="M53.5401 22.674C51.0101 22.674 48.953 20.6782 48.953 18.2237C48.953 15.7692 51.0101 13.7774 53.5401 13.7774C56.07 13.7774 58.123 15.7732 58.123 18.2237C58.123 20.6742 56.0659 22.674 53.5401 22.674ZM53.5401 16.4975C52.5571 16.4975 51.7566 17.2741 51.7566 18.2277C51.7566 19.1814 52.5571 19.9579 53.5401 19.9579C54.523 19.9579 55.3235 19.1814 55.3235 18.2277C55.3235 17.2741 54.523 16.4975 53.5401 16.4975Z" fill="#717071"/>
<path d="M194.512 8.48212V0.515015H191.455V22.674H194.512V11.2626H198V8.48212H194.512Z" fill="#717071"/>
<path d="M185.375 11.2666H188.332V3.56505V0.523062H185.375H178.328V3.56505H185.375V11.2666Z" fill="#717071"/>
<path d="M183.139 10.1922H180.112V18.9239H188.979V16.248H183.139V10.1922Z" fill="#717071"/>
<path d="M172.572 8.22057V0.510986H169.437V8.22057V11.2626V11.2666H175.425V8.22057H172.572Z" fill="#717071"/>
<path d="M164.932 16.2842H161.797V22.678H173.045V20.0022H164.932V16.2842Z" fill="#717071"/>
<path d="M167.745 5.8908C167.745 2.93331 165.264 0.527082 162.216 0.527082C159.168 0.527082 156.688 2.93331 156.688 5.8908C156.688 8.84829 159.168 11.2545 162.216 11.2545C165.264 11.2545 167.745 8.84829 167.745 5.8908ZM159.487 5.8908C159.487 4.43016 160.711 3.24717 162.216 3.24717C163.722 3.24717 164.945 4.43419 164.945 5.8908C164.945 7.34741 163.722 8.53846 162.216 8.53846C160.711 8.53846 159.487 7.35144 159.487 5.8908Z" fill="#717071"/>
<path d="M98.9956 0.410427L91.3518 11.5282H95.4039L98.9956 6.49038L102.587 11.5282H106.635L98.9956 0.410427Z" fill="#717071"/>
<path d="M107.888 16.409V19.0567H90.3733V16.409H107.888Z" fill="#717071"/>
<path d="M111.247 0.4104V11.5322H121.483V0.4104H111.247ZM118.43 8.71149H114.304V3.29948H118.43V8.71149Z" fill="#717071"/>
<path d="M131.208 8.32917V11.0814H127.758V22.9999H124.602V0.470703H127.758V8.32917H131.208Z" fill="#717071"/>
<path d="M138.907 0.185095C135.954 0.185095 133.557 2.50682 133.557 5.37579C133.557 8.24475 135.95 10.5665 138.907 10.5665C141.864 10.5665 144.257 8.24475 144.257 5.37579C144.257 2.50682 141.864 0.185095 138.907 0.185095ZM138.907 7.67337C137.6 7.67337 136.539 6.64328 136.539 5.37579C136.539 4.10829 137.6 3.0782 138.907 3.0782C140.213 3.0782 141.275 4.10829 141.275 5.37579C141.275 6.64328 140.213 7.67337 138.907 7.67337Z" fill="#717071"/>
<path d="M149.16 0.414465H146.178V11.1499H149.16V0.414465Z" fill="#717071"/>
<path d="M135.788 12.5341V14.9363H146.078V16.1998H135.788V16.4774V18.602V20.1109V21.8572V22.5131H149.184V20.1109H138.89V18.602H149.184V17.8053V16.1998V14.9363V12.6669V12.5341H135.788Z" fill="#717071"/>
<path d="M17.6348 1.52904C15.9053 0.559307 13.8979 0 11.7578 0V11.4075C11.7578 7.18649 14.1219 3.50472 17.6348 1.53306V1.52904Z" fill="#BEBDBD"/>
<path d="M11.7539 0C5.26313 0 0 5.10619 0 11.4075C0 17.7087 5.26313 22.8109 11.7539 22.8109V0Z" fill="#112D8C"/>
<path d="M23.5117 11.4075H35.2698C35.2698 5.11022 30.0067 0 23.5117 0C21.3675 0 19.3643 0.559307 17.6348 1.52904C21.1477 3.5007 23.5117 7.18247 23.5117 11.4034V11.4075Z" fill="#BEBDBD"/>
<path d="M23.5117 11.4075C23.5117 15.6284 21.1477 19.3102 17.6348 21.2819C19.3643 22.2516 21.3716 22.8109 23.5117 22.8109C30.0025 22.8109 35.2698 17.7047 35.2698 11.4075H23.5117Z" fill="#7E7F80"/>
<path d="M11.7539 11.4075V22.8109C13.8982 22.8109 15.9014 22.2516 17.6309 21.2818C21.1438 19.3102 23.5078 15.6284 23.5078 11.4075H11.7498H11.7539Z" fill="#BEBDBD"/>
<path d="M11.7539 11.4075H23.512C23.512 7.18649 21.1479 3.50472 17.635 1.53307C14.1221 3.50472 11.7581 7.18649 11.7581 11.4075H11.7539Z" fill="#E3E3E3"/>
</g>
<defs>
<clipPath id="clip0_1_485">
<rect width="198" height="23" fill="white"/>
</clipPath>
</defs>
</svg>
