<svg width="35" height="33" viewBox="0 0 35 33" fill="none" xmlns="http://www.w3.org/2000/svg">
<path d="M18.9125 16.5537V10.4882C18.9125 10.0108 18.751 9.61067 18.4281 9.28774C18.1051 8.96481 17.705 8.80335 17.2276 8.80335C16.7502 8.80335 16.3501 8.96481 16.0271 9.28774C15.7042 9.61067 15.5428 10.0108 15.5428 10.4882V17.1855C15.5428 17.4101 15.5849 17.6278 15.6691 17.8384C15.7534 18.049 15.8797 18.2385 16.0482 18.407L20.7658 23.1246C21.0747 23.4335 21.4678 23.5879 21.9452 23.5879C22.4226 23.5879 22.8157 23.4335 23.1246 23.1246C23.4335 22.8157 23.5879 22.4226 23.5879 21.9452C23.5879 21.4678 23.4335 21.0747 23.1246 20.7658L18.9125 16.5537ZM11.3096 31.1908C9.47027 30.3905 7.86966 29.3094 6.50774 27.9475C5.14582 26.5855 4.0647 24.9849 3.2644 23.1456C2.46409 21.3063 2.06394 19.3337 2.06394 17.2276C2.06394 15.1215 2.46409 13.1489 3.2644 11.3096C4.0647 9.47027 5.14582 7.86966 6.50774 6.50774C7.86966 5.14582 9.47027 4.0647 11.3096 3.2644C13.1489 2.4641 15.1215 2.06394 17.2276 2.06394C19.3337 2.06394 21.3063 2.4641 23.1456 3.2644C24.9849 4.0647 26.5855 5.14582 27.9475 6.50774C29.3094 7.86966 30.3905 9.47027 31.1908 11.3096C31.9911 13.1489 32.3913 15.1215 32.3913 17.2276C32.3913 19.3337 31.9911 21.3063 31.1908 23.1456C30.3905 24.9849 29.3094 26.5855 27.9475 27.9475C26.5855 29.3094 24.9849 30.3905 23.1456 31.1908C21.3063 31.9911 19.3337 32.3913 17.2276 32.3913C15.1215 32.3913 13.1489 31.9911 11.3096 31.1908ZM0.463334 7.62395C0.154445 7.31506 0 6.92193 0 6.44456C0 5.96718 0.154445 5.57405 0.463334 5.26516L5.26516 0.463334C5.57405 0.154445 5.96718 0 6.44456 0C6.92193 0 7.31506 0.154445 7.62395 0.463334C7.93284 0.772224 8.08729 1.16536 8.08729 1.64273C8.08729 2.1201 7.93284 2.51324 7.62395 2.82213L2.82213 7.62395C2.51324 7.93284 2.1201 8.08729 1.64273 8.08729C1.16536 8.08729 0.772223 7.93284 0.463334 7.62395ZM33.9919 7.62395C33.683 7.93284 33.2899 8.08729 32.8125 8.08729C32.3351 8.08729 31.942 7.93284 31.6331 7.62395L26.8313 2.82213C26.5224 2.51324 26.3679 2.1201 26.3679 1.64273C26.3679 1.16536 26.5224 0.772224 26.8313 0.463334C27.1401 0.154445 27.5333 0 28.0107 0C28.488 0 28.8812 0.154445 29.19 0.463334L33.9919 5.26516C34.3008 5.57405 34.4552 5.96718 34.4552 6.44456C34.4552 6.92193 34.3008 7.31506 33.9919 7.62395ZM17.2276 29.0216C20.5131 29.0216 23.3001 27.8773 25.5887 25.5887C27.8773 23.3001 29.0216 20.5131 29.0216 17.2276C29.0216 13.9421 27.8773 11.1551 25.5887 8.86653C23.3001 6.57794 20.5131 5.43365 17.2276 5.43365C13.9421 5.43365 11.1551 6.57794 8.86653 8.86653C6.57794 11.1551 5.43365 13.9421 5.43365 17.2276C5.43365 20.5131 6.57794 23.3001 8.86653 25.5887C11.1551 27.8773 13.9421 29.0216 17.2276 29.0216Z" fill="#8EB6FF"/>
</svg>
