<svg width="72" height="72" viewBox="0 0 72 72" fill="none" xmlns="http://www.w3.org/2000/svg">
<path d="M31.2695 34.3753H29.4935C24.5015 34.3753 20.4407 30.3145 20.4407 25.3225V18.9577C20.4407 18.3961 20.8967 17.9401 21.4583 17.9401H31.2695C31.8311 17.9401 32.2871 18.3961 32.2871 18.9577V33.3625C32.2871 33.9241 31.8311 34.3801 31.2695 34.3801V34.3753ZM22.4711 19.9705V25.3177C22.4711 29.1913 25.6199 32.3401 29.4935 32.3401H30.2519V19.9705H22.4759H22.4711Z" fill="#FDDF7B"/>
<path d="M42.5063 34.3753H40.7303C40.1687 34.3753 39.7127 33.9193 39.7127 33.3577V18.9529C39.7127 18.3913 40.1687 17.9353 40.7303 17.9353H50.5415C51.1031 17.9353 51.5591 18.3913 51.5591 18.9529V25.3177C51.5591 30.3097 47.4983 34.3705 42.5063 34.3705V34.3753ZM41.7479 32.3449H42.5063C46.3799 32.3449 49.5287 29.1961 49.5287 25.3225V19.9753H41.7479V32.3449Z" fill="#FDDF7B"/>
<path d="M45.2327 29.8968L46.6919 18.612C46.8599 17.3112 45.8471 16.1544 44.5319 16.1544H27.4679C26.1527 16.1544 25.1399 17.3064 25.3079 18.612L26.7671 29.8968C27.4247 33.1608 29.7191 35.7384 32.6951 36.8568C33.8087 37.2744 34.5335 38.3496 34.5335 39.5352C34.5335 40.7928 33.5111 41.8152 32.2535 41.8152H31.3079C29.4167 41.8152 27.8855 43.3464 27.8855 45.2376H44.1095C44.1095 43.3464 42.5783 41.8152 40.6871 41.8152H39.7415C38.4839 41.8152 37.4615 40.7928 37.4615 39.5352C37.4615 38.3496 38.1863 37.2696 39.2999 36.8568C42.2759 35.7432 44.5703 33.1608 45.2279 29.8968H45.2327Z" fill="#FDDF7B"/>
<path d="M36.8423 21.7512L37.3799 23.0712C37.5095 23.3928 37.8119 23.6088 38.1575 23.6376L39.5783 23.7384C40.3895 23.796 40.7207 24.8136 40.0967 25.3368L39.0071 26.2536C38.7431 26.4744 38.6279 26.8296 38.7095 27.1656L39.0503 28.548C39.2471 29.34 38.3831 29.9688 37.6871 29.5368L36.4775 28.7832C36.1847 28.6008 35.8103 28.6008 35.5175 28.7832L34.3079 29.5368C33.6167 29.9688 32.7527 29.34 32.9447 28.548L33.2855 27.1656C33.3671 26.8296 33.2519 26.4744 32.9879 26.2536L31.8983 25.3368C31.2743 24.8136 31.6055 23.796 32.4167 23.7384L33.8375 23.6376C34.1831 23.6136 34.4855 23.3928 34.6151 23.0712L35.1527 21.7512C35.4599 20.9976 36.5303 20.9976 36.8375 21.7512H36.8423Z" fill="#F9BC4E"/>
<path d="M44.5367 45.2375H27.4199C26.2191 45.2375 25.2455 46.2111 25.2455 47.4119V53.6711C25.2455 54.872 26.2191 55.8455 27.4199 55.8455H44.5367C45.7376 55.8455 46.7111 54.872 46.7111 53.6711V47.4119C46.7111 46.2111 45.7376 45.2375 44.5367 45.2375Z" fill="#200FFD"/>
<path d="M43.1591 52.2888V48.7944H28.8071V52.2888H43.1591Z" fill="#A1D1FF"/>
<g filter="url(#filter0_f_2_281)">
<path d="M40.7519 43.9537H39.8063C38.8799 43.9537 38.0351 43.6225 37.3775 43.0753C37.0559 42.8065 36.7823 42.4897 36.5663 42.1345C36.3215 41.7361 36.1487 41.2897 36.0623 40.8145C36.0143 41.0737 35.9471 41.3281 35.8511 41.5681C35.6111 42.1585 35.2319 42.6769 34.7471 43.0753C34.0895 43.6225 33.2447 43.9537 32.3183 43.9537H31.3727C30.9503 43.9537 30.5567 44.0977 30.2399 44.3281H41.8799C41.5631 44.0929 41.1743 43.9537 40.7519 43.9537Z" fill="#F9BC4E"/>
</g>
<g filter="url(#filter1_f_2_281)">
<path d="M45.2399 18.9744L43.7855 30.2016C43.2335 32.8704 41.3807 35.0256 38.8271 35.9808C37.3583 36.5328 36.3071 37.848 36.0575 39.3792C35.9231 38.5728 35.5679 37.8288 35.0447 37.224C35.4911 36.0912 36.3983 35.16 37.5695 34.7232C40.1231 33.768 41.9759 31.608 42.5279 28.944L43.9199 18.24H44.5967C44.8511 18.24 45.0143 18.3792 45.0863 18.4608C45.1583 18.5472 45.2783 18.72 45.2447 18.9792L45.2399 18.9744Z" fill="#F9BC4E"/>
</g>
<defs>
<filter id="filter0_f_2_281" x="22.2399" y="32.8145" width="27.64" height="19.5135" filterUnits="userSpaceOnUse" color-interpolation-filters="sRGB">
<feFlood flood-opacity="0" result="BackgroundImageFix"/>
<feBlend mode="normal" in="SourceGraphic" in2="BackgroundImageFix" result="shape"/>
<feGaussianBlur stdDeviation="4" result="effect1_foregroundBlur_2_281"/>
</filter>
<filter id="filter1_f_2_281" x="27.0447" y="10.24" width="26.2058" height="37.1392" filterUnits="userSpaceOnUse" color-interpolation-filters="sRGB">
<feFlood flood-opacity="0" result="BackgroundImageFix"/>
<feBlend mode="normal" in="SourceGraphic" in2="BackgroundImageFix" result="shape"/>
<feGaussianBlur stdDeviation="4" result="effect1_foregroundBlur_2_281"/>
</filter>
</defs>
</svg>
