<svg width="72" height="72" viewBox="0 0 72 72" fill="none" xmlns="http://www.w3.org/2000/svg">
<path d="M41.8664 38.1804L38.7472 41.2996L43.0747 45.6271L46.1939 42.5079L41.8664 38.1804Z" fill="#BBC5C8"/>
<path d="M45.1826 42.0959L42.6607 44.6177C41.9784 45.3 41.9784 46.4063 42.6607 47.0886L51.8656 56.2934C52.5479 56.9758 53.6542 56.9758 54.3365 56.2934L56.8583 53.7716C57.5406 53.0893 57.5406 51.983 56.8583 51.3007L47.6535 42.0959C46.9712 41.4135 45.8649 41.4135 45.1826 42.0959Z" fill="#427EEB"/>
<path d="M24.5901 24.0281C19.9245 28.6937 19.9245 36.2585 24.5901 40.9241C29.2557 45.5897 36.8205 45.5897 41.4861 40.9241C46.1517 36.2585 46.1517 28.6937 41.4861 24.0281C36.8205 19.3625 29.2557 19.3625 24.5901 24.0281ZM38.7165 38.1545C35.5773 41.2937 30.4941 41.2937 27.3549 38.1545C24.2157 35.0153 24.2157 29.9321 27.3549 26.7929C30.4941 23.6537 35.5773 23.6537 38.7165 26.7929C41.8557 29.9321 41.8557 35.0153 38.7165 38.1545Z" fill="#1E0DFF"/>
<path d="M19.253 18.0813C18.7732 17.6014 17.9951 17.6014 17.5153 18.0813C17.0354 18.5612 17.0354 19.3392 17.5153 19.8191L19.942 22.2459C20.4219 22.7258 21.2 22.7258 21.6798 22.2459C22.1597 21.766 22.1597 20.988 21.6798 20.5081L19.253 18.0813Z" fill="#FDDF7B"/>
<path d="M15.7483 23.3626C15.0945 23.1808 14.417 23.5634 14.2352 24.2172C14.0534 24.8711 14.436 25.5485 15.0899 25.7303L18.3964 26.6498C19.0503 26.8316 19.7277 26.449 19.9095 25.7951C20.0913 25.1413 19.7087 24.4639 19.0548 24.282L15.7483 23.3626Z" fill="#FDDF7B"/>
<path d="M23.7183 19.6202C23.9001 20.274 24.5776 20.6567 25.2314 20.4748C25.8852 20.293 26.2679 19.6156 26.0861 18.9618L25.1666 15.6552C24.9848 15.0014 24.3074 14.6187 23.6535 14.8005C22.9997 14.9824 22.617 15.6598 22.7988 16.3136L23.7183 19.6202Z" fill="#FDDF7B"/>
<g opacity="0.5" filter="url(#filter0_f_2_207)">
<path d="M33.6719 24.5089C31.8527 24.6625 30.0671 25.4401 28.6703 26.8321C25.5311 29.9713 25.5311 35.0545 28.6703 38.1937C30.0671 39.5905 31.8527 40.3633 33.6767 40.5169C31.3967 40.7089 29.0591 39.9361 27.3167 38.1937C24.1775 35.0545 24.1775 29.9665 27.3167 26.8273C29.0543 25.0897 31.3967 24.3169 33.6719 24.5089Z" fill="#A89F9D"/>
</g>
<g filter="url(#filter1_f_2_207)">
<path d="M46.9343 43.6512L55.3103 52.0272L52.5215 54.8208L51.7007 54L53.7647 51.936L46.2095 44.376L46.9343 43.6512Z" fill="#FD6769"/>
</g>
<defs>
<filter id="filter0_f_2_207" x="20.9623" y="20.4802" width="16.7144" height="24.0653" filterUnits="userSpaceOnUse" color-interpolation-filters="sRGB">
<feFlood flood-opacity="0" result="BackgroundImageFix"/>
<feBlend mode="normal" in="SourceGraphic" in2="BackgroundImageFix" result="shape"/>
<feGaussianBlur stdDeviation="2" result="effect1_foregroundBlur_2_207"/>
</filter>
<filter id="filter1_f_2_207" x="40.2095" y="37.6512" width="21.1008" height="23.1696" filterUnits="userSpaceOnUse" color-interpolation-filters="sRGB">
<feFlood flood-opacity="0" result="BackgroundImageFix"/>
<feBlend mode="normal" in="SourceGraphic" in2="BackgroundImageFix" result="shape"/>
<feGaussianBlur stdDeviation="3" result="effect1_foregroundBlur_2_207"/>
</filter>
</defs>
</svg>
