<svg width="72" height="72" viewBox="0 0 72 72" fill="none" xmlns="http://www.w3.org/2000/svg">
<g filter="url(#filter0_d_2_292)">
<path d="M15.6001 26.4H55.2001V48.6556C55.2001 50.2811 53.7895 51.6 52.051 51.6H18.7492C17.0107 51.6 15.6001 50.2811 15.6001 48.6556V26.4Z" fill="white"/>
</g>
<path d="M53.2201 20.9736H17.1769C16.0926 20.9736 15.2137 21.8526 15.2137 22.9368V28.1784C15.2137 29.2627 16.0926 30.1416 17.1769 30.1416H53.2201C54.3043 30.1416 55.1833 29.2627 55.1833 28.1784V22.9368C55.1833 21.8526 54.3043 20.9736 53.2201 20.9736Z" fill="#1E0DFF"/>
<path d="M27.5833 33.7225H23.5513C22.8488 33.7225 22.2793 34.292 22.2793 34.9945V38.1433C22.2793 38.8458 22.8488 39.4153 23.5513 39.4153H27.5833C28.2858 39.4153 28.8553 38.8458 28.8553 38.1433V34.9945C28.8553 34.292 28.2858 33.7225 27.5833 33.7225Z" fill="#C9DAF4"/>
<path d="M37.2121 33.7225H33.1801C32.4776 33.7225 31.9081 34.292 31.9081 34.9945V38.1433C31.9081 38.8458 32.4776 39.4153 33.1801 39.4153H37.2121C37.9146 39.4153 38.4841 38.8458 38.4841 38.1433V34.9945C38.4841 34.292 37.9146 33.7225 37.2121 33.7225Z" fill="#C9DAF4"/>
<path d="M46.8457 33.7225H42.8137C42.1112 33.7225 41.5417 34.292 41.5417 34.9945V38.1433C41.5417 38.8458 42.1112 39.4153 42.8137 39.4153H46.8457C47.5482 39.4153 48.1177 38.8458 48.1177 38.1433V34.9945C48.1177 34.292 47.5482 33.7225 46.8457 33.7225Z" fill="#C9DAF4"/>
<path d="M27.5833 41.3784H23.5513C22.8488 41.3784 22.2793 41.9479 22.2793 42.6504V45.7992C22.2793 46.5017 22.8488 47.0712 23.5513 47.0712H27.5833C28.2858 47.0712 28.8553 46.5017 28.8553 45.7992V42.6504C28.8553 41.9479 28.2858 41.3784 27.5833 41.3784Z" fill="#C9DAF4"/>
<path d="M37.2121 41.3784H33.1801C32.4776 41.3784 31.9081 41.9479 31.9081 42.6504V45.7992C31.9081 46.5017 32.4776 47.0712 33.1801 47.0712H37.2121C37.9146 47.0712 38.4841 46.5017 38.4841 45.7992V42.6504C38.4841 41.9479 37.9146 41.3784 37.2121 41.3784Z" fill="#C9DAF4"/>
<path d="M46.8457 41.3784H42.8137C42.1112 41.3784 41.5417 41.9479 41.5417 42.6504V45.7992C41.5417 46.5017 42.1112 47.0712 42.8137 47.0712H46.8457C47.5482 47.0712 48.1177 46.5017 48.1177 45.7992V42.6504C48.1177 41.9479 47.5482 41.3784 46.8457 41.3784Z" fill="#C9DAF4"/>
<path d="M49.3609 55.2264C53.4619 55.2264 56.7865 51.9019 56.7865 47.8008C56.7865 43.6998 53.4619 40.3752 49.3609 40.3752C45.2599 40.3752 41.9353 43.6998 41.9353 47.8008C41.9353 51.9019 45.2599 55.2264 49.3609 55.2264Z" fill="#437EED"/>
<g opacity="0.8" filter="url(#filter1_f_2_292)" style="mix-blend-mode:multiply">
<path d="M55.2913 47.6689C55.2913 51.0769 52.5217 53.8513 49.1137 53.8513C47.0881 53.8513 45.2929 52.8721 44.1601 51.3697C45.1921 52.1473 46.4737 52.6033 47.8609 52.6033C51.2689 52.6033 54.0433 49.8337 54.0433 46.4209C54.0433 45.0337 53.5873 43.7521 52.8097 42.7201C54.3169 43.8481 55.2913 45.6481 55.2913 47.6689Z" fill="#2EBD8B"/>
</g>
<path d="M53.7577 46.5289L49.3369 50.9497C48.8569 51.4297 48.0793 51.4297 47.5993 50.9497L45.3049 48.6553C45.0889 48.4393 45.0889 48.0937 45.3049 47.8777L45.8185 47.3641C46.0345 47.1481 46.3849 47.1481 46.5961 47.3641L48.4681 49.2361L52.4665 45.2377C52.6825 45.0217 53.0329 45.0217 53.2441 45.2377L53.7577 45.7513C53.9737 45.9673 53.9737 46.3129 53.7577 46.5289Z" fill="white"/>
<g filter="url(#filter2_d_2_292)">
<path d="M22.7833 18.4681C22.7833 17.5323 22.0247 16.7737 21.0889 16.7737C20.1531 16.7737 19.3945 17.5323 19.3945 18.4681V25.2121C19.3945 26.1479 20.1531 26.9065 21.0889 26.9065C22.0247 26.9065 22.7833 26.1479 22.7833 25.2121V18.4681Z" fill="white"/>
</g>
<g opacity="0.5" filter="url(#filter3_f_2_292)">
<path d="M21.4874 23.52H20.7528C20.4255 23.52 20.1601 23.8123 20.1601 24.1729V25.2671C20.1601 25.6277 20.4255 25.92 20.7528 25.92H21.4874C21.8147 25.92 22.0801 25.6277 22.0801 25.2671V24.1729C22.0801 23.8123 21.8147 23.52 21.4874 23.52Z" fill="#A89F9D"/>
</g>
<g filter="url(#filter4_d_2_292)">
<path d="M32.1865 18.4681C32.1865 17.5323 31.4279 16.7737 30.4921 16.7737C29.5563 16.7737 28.7977 17.5323 28.7977 18.4681V25.2121C28.7977 26.1479 29.5563 26.9065 30.4921 26.9065C31.4279 26.9065 32.1865 26.1479 32.1865 25.2121V18.4681Z" fill="white"/>
</g>
<g filter="url(#filter5_d_2_292)">
<path d="M41.5945 18.4681C41.5945 17.5323 40.8359 16.7737 39.9001 16.7737C38.9643 16.7737 38.2057 17.5323 38.2057 18.4681V25.2121C38.2057 26.1479 38.9643 26.9065 39.9001 26.9065C40.8359 26.9065 41.5945 26.1479 41.5945 25.2121V18.4681Z" fill="white"/>
</g>
<g opacity="0.5" filter="url(#filter6_f_2_292)">
<path d="M31.0874 23.52H30.3528C30.0255 23.52 29.7601 23.8123 29.7601 24.1729V25.2671C29.7601 25.6277 30.0255 25.92 30.3528 25.92H31.0874C31.4148 25.92 31.6801 25.6277 31.6801 25.2671V24.1729C31.6801 23.8123 31.4148 23.52 31.0874 23.52Z" fill="#A89F9D"/>
</g>
<g opacity="0.5" filter="url(#filter7_f_2_292)">
<path d="M40.2074 23.52H39.4728C39.1455 23.52 38.8801 23.8123 38.8801 24.1729V25.2671C38.8801 25.6277 39.1455 25.92 39.4728 25.92H40.2074C40.5348 25.92 40.8001 25.6277 40.8001 25.2671V24.1729C40.8001 23.8123 40.5348 23.52 40.2074 23.52Z" fill="#A89F9D"/>
</g>
<g filter="url(#filter8_d_2_292)">
<path d="M50.9977 18.4681C50.9977 17.5323 50.2391 16.7737 49.3033 16.7737C48.3675 16.7737 47.6089 17.5323 47.6089 18.4681V25.2121C47.6089 26.1479 48.3675 26.9065 49.3033 26.9065C50.2391 26.9065 50.9977 26.1479 50.9977 25.2121V18.4681Z" fill="white"/>
</g>
<g opacity="0.5" filter="url(#filter9_f_2_292)">
<path d="M49.8074 23.52H49.0728C48.7455 23.52 48.4801 23.8123 48.4801 24.1729V25.2671C48.4801 25.6277 48.7455 25.92 49.0728 25.92H49.8074C50.1347 25.92 50.4001 25.6277 50.4001 25.2671V24.1729C50.4001 23.8123 50.1347 23.52 49.8074 23.52Z" fill="#A89F9D"/>
</g>
<defs>
<filter id="filter0_d_2_292" x="10.0001" y="20.8" width="50.8" height="36.4" filterUnits="userSpaceOnUse" color-interpolation-filters="sRGB">
<feFlood flood-opacity="0" result="BackgroundImageFix"/>
<feColorMatrix in="SourceAlpha" type="matrix" values="0 0 0 0 0 0 0 0 0 0 0 0 0 0 0 0 0 0 127 0" result="hardAlpha"/>
<feOffset/>
<feGaussianBlur stdDeviation="2.8"/>
<feComposite in2="hardAlpha" operator="out"/>
<feColorMatrix type="matrix" values="0 0 0 0 0 0 0 0 0 0 0 0 0 0 0 0 0 0 0.14 0"/>
<feBlend mode="normal" in2="BackgroundImageFix" result="effect1_dropShadow_2_292"/>
<feBlend mode="normal" in="SourceGraphic" in2="effect1_dropShadow_2_292" result="shape"/>
</filter>
<filter id="filter1_f_2_292" x="38.1601" y="36.7201" width="23.1312" height="23.1312" filterUnits="userSpaceOnUse" color-interpolation-filters="sRGB">
<feFlood flood-opacity="0" result="BackgroundImageFix"/>
<feBlend mode="normal" in="SourceGraphic" in2="BackgroundImageFix" result="shape"/>
<feGaussianBlur stdDeviation="3" result="effect1_foregroundBlur_2_292"/>
</filter>
<filter id="filter2_d_2_292" x="13.7945" y="11.1737" width="14.5888" height="21.3328" filterUnits="userSpaceOnUse" color-interpolation-filters="sRGB">
<feFlood flood-opacity="0" result="BackgroundImageFix"/>
<feColorMatrix in="SourceAlpha" type="matrix" values="0 0 0 0 0 0 0 0 0 0 0 0 0 0 0 0 0 0 127 0" result="hardAlpha"/>
<feOffset/>
<feGaussianBlur stdDeviation="2.8"/>
<feComposite in2="hardAlpha" operator="out"/>
<feColorMatrix type="matrix" values="0 0 0 0 0 0 0 0 0 0 0 0 0 0 0 0 0 0 0.14 0"/>
<feBlend mode="normal" in2="BackgroundImageFix" result="effect1_dropShadow_2_292"/>
<feBlend mode="normal" in="SourceGraphic" in2="effect1_dropShadow_2_292" result="shape"/>
</filter>
<filter id="filter3_f_2_292" x="16.1601" y="19.52" width="9.91998" height="10.4" filterUnits="userSpaceOnUse" color-interpolation-filters="sRGB">
<feFlood flood-opacity="0" result="BackgroundImageFix"/>
<feBlend mode="normal" in="SourceGraphic" in2="BackgroundImageFix" result="shape"/>
<feGaussianBlur stdDeviation="2" result="effect1_foregroundBlur_2_292"/>
</filter>
<filter id="filter4_d_2_292" x="23.1977" y="11.1737" width="14.5888" height="21.3328" filterUnits="userSpaceOnUse" color-interpolation-filters="sRGB">
<feFlood flood-opacity="0" result="BackgroundImageFix"/>
<feColorMatrix in="SourceAlpha" type="matrix" values="0 0 0 0 0 0 0 0 0 0 0 0 0 0 0 0 0 0 127 0" result="hardAlpha"/>
<feOffset/>
<feGaussianBlur stdDeviation="2.8"/>
<feComposite in2="hardAlpha" operator="out"/>
<feColorMatrix type="matrix" values="0 0 0 0 0 0 0 0 0 0 0 0 0 0 0 0 0 0 0.14 0"/>
<feBlend mode="normal" in2="BackgroundImageFix" result="effect1_dropShadow_2_292"/>
<feBlend mode="normal" in="SourceGraphic" in2="effect1_dropShadow_2_292" result="shape"/>
</filter>
<filter id="filter5_d_2_292" x="32.6057" y="11.1737" width="14.5888" height="21.3328" filterUnits="userSpaceOnUse" color-interpolation-filters="sRGB">
<feFlood flood-opacity="0" result="BackgroundImageFix"/>
<feColorMatrix in="SourceAlpha" type="matrix" values="0 0 0 0 0 0 0 0 0 0 0 0 0 0 0 0 0 0 127 0" result="hardAlpha"/>
<feOffset/>
<feGaussianBlur stdDeviation="2.8"/>
<feComposite in2="hardAlpha" operator="out"/>
<feColorMatrix type="matrix" values="0 0 0 0 0 0 0 0 0 0 0 0 0 0 0 0 0 0 0.14 0"/>
<feBlend mode="normal" in2="BackgroundImageFix" result="effect1_dropShadow_2_292"/>
<feBlend mode="normal" in="SourceGraphic" in2="effect1_dropShadow_2_292" result="shape"/>
</filter>
<filter id="filter6_f_2_292" x="25.7601" y="19.52" width="9.91998" height="10.4" filterUnits="userSpaceOnUse" color-interpolation-filters="sRGB">
<feFlood flood-opacity="0" result="BackgroundImageFix"/>
<feBlend mode="normal" in="SourceGraphic" in2="BackgroundImageFix" result="shape"/>
<feGaussianBlur stdDeviation="2" result="effect1_foregroundBlur_2_292"/>
</filter>
<filter id="filter7_f_2_292" x="34.8801" y="19.52" width="9.91998" height="10.4" filterUnits="userSpaceOnUse" color-interpolation-filters="sRGB">
<feFlood flood-opacity="0" result="BackgroundImageFix"/>
<feBlend mode="normal" in="SourceGraphic" in2="BackgroundImageFix" result="shape"/>
<feGaussianBlur stdDeviation="2" result="effect1_foregroundBlur_2_292"/>
</filter>
<filter id="filter8_d_2_292" x="42.0089" y="11.1737" width="14.5888" height="21.3328" filterUnits="userSpaceOnUse" color-interpolation-filters="sRGB">
<feFlood flood-opacity="0" result="BackgroundImageFix"/>
<feColorMatrix in="SourceAlpha" type="matrix" values="0 0 0 0 0 0 0 0 0 0 0 0 0 0 0 0 0 0 127 0" result="hardAlpha"/>
<feOffset/>
<feGaussianBlur stdDeviation="2.8"/>
<feComposite in2="hardAlpha" operator="out"/>
<feColorMatrix type="matrix" values="0 0 0 0 0 0 0 0 0 0 0 0 0 0 0 0 0 0 0.14 0"/>
<feBlend mode="normal" in2="BackgroundImageFix" result="effect1_dropShadow_2_292"/>
<feBlend mode="normal" in="SourceGraphic" in2="effect1_dropShadow_2_292" result="shape"/>
</filter>
<filter id="filter9_f_2_292" x="44.4801" y="19.52" width="9.91998" height="10.4" filterUnits="userSpaceOnUse" color-interpolation-filters="sRGB">
<feFlood flood-opacity="0" result="BackgroundImageFix"/>
<feBlend mode="normal" in="SourceGraphic" in2="BackgroundImageFix" result="shape"/>
<feGaussianBlur stdDeviation="2" result="effect1_foregroundBlur_2_292"/>
</filter>
</defs>
</svg>
