<svg width="28" height="38" viewBox="0 0 28 38" fill="none" xmlns="http://www.w3.org/2000/svg">
<path d="M17.2629 36.0423V27.2515L13.5708 23.7352L12.2082 29.8008C12.091 30.2697 11.8346 30.6286 11.439 30.8777C11.0434 31.1268 10.6112 31.2074 10.1424 31.1194L1.43949 29.3613C0.941349 29.2734 0.560414 29.0243 0.29669 28.6141C0.0329655 28.2038 -0.0549425 27.7496 0.0329655 27.2515C0.120874 26.7533 0.369946 26.3651 0.780184 26.0867C1.19042 25.8083 1.64461 25.7278 2.14276 25.845L8.82377 27.2515L11.6368 13.0104L8.47214 14.2411V18.4607C8.47214 18.9588 8.30365 19.3764 7.96667 19.7134C7.62968 20.0504 7.21212 20.2188 6.71398 20.2188C6.21583 20.2188 5.79827 20.0504 5.46129 19.7134C5.12431 19.3764 4.95582 18.9588 4.95582 18.4607V13.0983C4.95582 12.7467 5.05105 12.4317 5.24152 12.1533C5.43198 11.8749 5.68838 11.6625 6.01071 11.516L11.9006 8.96662C12.9261 8.52708 13.6807 8.24138 14.1642 8.10952C14.6477 7.97766 15.0945 7.91172 15.5048 7.91172C16.1201 7.91172 16.6915 8.07289 17.219 8.39522C17.7464 8.71755 18.1713 9.14244 18.4937 9.66988L20.2518 12.4829C20.8672 13.4792 21.6657 14.3437 22.6473 15.0762C23.6289 15.8088 24.7644 16.2923 26.0537 16.5267C26.5519 16.6146 26.9695 16.8344 27.3064 17.186C27.6434 17.5377 27.8119 17.9625 27.8119 18.4607C27.8119 18.9588 27.6434 19.3691 27.3064 19.6914C26.9695 20.0137 26.5665 20.1456 26.0977 20.087C24.5154 19.8526 23.0356 19.3617 21.6583 18.6145C20.2811 17.8673 19.109 16.9369 18.142 15.8234L17.0871 21.0979L20.2518 24.0868C20.4276 24.2626 20.5595 24.4604 20.6474 24.6802C20.7353 24.9 20.7793 25.127 20.7793 25.3615V36.0423C20.7793 36.5404 20.6108 36.958 20.2738 37.295C19.9368 37.632 19.5192 37.8005 19.0211 37.8005C18.523 37.8005 18.1054 37.632 17.7684 37.295C17.4314 36.958 17.2629 36.5404 17.2629 36.0423ZM15.6586 5.99972C14.97 5.31111 14.6257 4.48331 14.6257 3.51632C14.6257 2.54933 14.97 1.72153 15.6586 1.03292C16.3472 0.344307 17.175 0 18.142 0C19.109 0 19.9368 0.344307 20.6254 1.03292C21.314 1.72153 21.6583 2.54933 21.6583 3.51632C21.6583 4.48331 21.314 5.31111 20.6254 5.99972C19.9368 6.68834 19.109 7.03264 18.142 7.03264C17.175 7.03264 16.3472 6.68834 15.6586 5.99972Z" fill="#8EB6FF"/>
</svg>
