<svg width="41" height="19" viewBox="0 0 41 19" fill="none" xmlns="http://www.w3.org/2000/svg">
<path d="M9.01758 18.0352C6.5127 18.0352 4.38354 17.1584 2.63013 15.405C0.876709 13.6516 0 11.5225 0 9.01758C0 6.5127 0.876709 4.38354 2.63013 2.63013C4.38354 0.876709 6.5127 0 9.01758 0C10.8879 0 12.5578 0.500977 14.0273 1.50293C15.4969 2.50488 16.5823 3.80742 17.2837 5.41055C17.7179 5.27695 18.1604 5.17676 18.6113 5.10996C19.0622 5.04316 19.5214 5.00977 19.989 5.00977C20.4565 5.00977 20.9241 5.04316 21.3917 5.10996C21.8593 5.17676 22.3269 5.27695 22.7944 5.41055C23.4958 3.80742 24.5812 2.50488 26.0508 1.50293C27.5203 0.500977 29.1902 0 31.0605 0C33.5654 0 35.6946 0.876709 37.448 2.63013C39.2014 4.38354 40.0781 6.5127 40.0781 9.01758C40.0781 11.5225 39.2014 13.6516 37.448 15.405C35.6946 17.1584 33.5654 18.0352 31.0605 18.0352C28.6225 18.0352 26.5351 17.1918 24.7983 15.5052C23.0616 13.8186 22.1432 11.7729 22.043 9.36826C21.709 9.23467 21.375 9.14282 21.041 9.09272C20.707 9.04263 20.3563 9.01758 19.989 9.01758C19.6216 9.01758 19.2792 9.05098 18.962 9.11777C18.6447 9.18457 18.3357 9.26807 18.0352 9.36826C17.935 11.7729 17.0165 13.8186 15.2798 15.5052C13.5431 17.1918 11.4557 18.0352 9.01758 18.0352ZM5.46064 5.46064C4.49209 6.4292 4.00781 7.61484 4.00781 9.01758C4.00781 10.4203 4.49209 11.606 5.46064 12.5745C6.4292 13.5431 7.61484 14.0273 9.01758 14.0273C10.4203 14.0273 11.606 13.5431 12.5745 12.5745C13.5431 11.606 14.0273 10.4203 14.0273 9.01758C14.0273 7.61484 13.5431 6.4292 12.5745 5.46064C11.606 4.49209 10.4203 4.00781 9.01758 4.00781C7.61484 4.00781 6.4292 4.49209 5.46064 5.46064ZM27.5036 5.46064C26.5351 6.4292 26.0508 7.61484 26.0508 9.01758C26.0508 10.4203 26.5351 11.606 27.5036 12.5745C28.4722 13.5431 29.6578 14.0273 31.0605 14.0273C32.4633 14.0273 33.6489 13.5431 34.6175 12.5745C35.586 11.606 36.0703 10.4203 36.0703 9.01758C36.0703 7.61484 35.586 6.4292 34.6175 5.46064C33.6489 4.49209 32.4633 4.00781 31.0605 4.00781C29.6578 4.00781 28.4722 4.49209 27.5036 5.46064Z" fill="#8EB6FF"/>
</svg>
