<svg width="41" height="39" viewBox="0 0 41 39" fill="none" xmlns="http://www.w3.org/2000/svg">
<path d="M9.47852 28.0352C6.97363 28.0352 4.84448 27.1584 3.09106 25.405C1.33765 23.6516 0.460938 21.5225 0.460938 19.0176C0.460938 16.5127 1.33765 14.3835 3.09106 12.6301C4.84448 10.8767 6.97363 10 9.47852 10C11.3488 10 13.0187 10.501 14.4883 11.5029C15.9578 12.5049 17.0433 13.8074 17.7446 15.4105C18.1788 15.277 18.6213 15.1768 19.0722 15.11C19.5231 15.0432 19.9823 15.0098 20.4499 15.0098C20.9175 15.0098 21.3851 15.0432 21.8526 15.11C22.3202 15.1768 22.7878 15.277 23.2554 15.4105C23.9567 13.8074 25.0422 12.5049 26.5117 11.5029C27.9813 10.501 29.6512 10 31.5215 10C34.0264 10 36.1555 10.8767 37.9089 12.6301C39.6624 14.3835 40.5391 16.5127 40.5391 19.0176C40.5391 21.5225 39.6624 23.6516 37.9089 25.405C36.1555 27.1584 34.0264 28.0352 31.5215 28.0352C29.0834 28.0352 26.996 27.1918 25.2593 25.5052C23.5226 23.8186 22.6041 21.7729 22.5039 19.3683C22.1699 19.2347 21.8359 19.1428 21.502 19.0927C21.168 19.0426 20.8173 19.0176 20.4499 19.0176C20.0825 19.0176 19.7402 19.051 19.4229 19.1178C19.1056 19.1846 18.7967 19.2681 18.4961 19.3683C18.3959 21.7729 17.4774 23.8186 15.7407 25.5052C14.004 27.1918 11.9166 28.0352 9.47852 28.0352ZM5.92158 15.4606C4.95303 16.4292 4.46875 17.6148 4.46875 19.0176C4.46875 20.4203 4.95303 21.606 5.92158 22.5745C6.89014 23.5431 8.07578 24.0273 9.47852 24.0273C10.8812 24.0273 12.0669 23.5431 13.0354 22.5745C14.004 21.606 14.4883 20.4203 14.4883 19.0176C14.4883 17.6148 14.004 16.4292 13.0354 15.4606C12.0669 14.4921 10.8812 14.0078 9.47852 14.0078C8.07578 14.0078 6.89014 14.4921 5.92158 15.4606ZM27.9646 15.4606C26.996 16.4292 26.5117 17.6148 26.5117 19.0176C26.5117 20.4203 26.996 21.606 27.9646 22.5745C28.9331 23.5431 30.1188 24.0273 31.5215 24.0273C32.9242 24.0273 34.1099 23.5431 35.0784 22.5745C36.047 21.606 36.5312 20.4203 36.5312 19.0176C36.5312 17.6148 36.047 16.4292 35.0784 15.4606C34.1099 14.4921 32.9242 14.0078 31.5215 14.0078C30.1188 14.0078 28.9331 14.4921 27.9646 15.4606Z" fill="#8EB6FF"/>
</svg>
