<svg width="35" height="35" viewBox="0 0 35 35" fill="none" xmlns="http://www.w3.org/2000/svg">
<path d="M18.978 17.8142V12.4934C18.978 12.0746 18.8363 11.7236 18.553 11.4403C18.2697 11.157 17.9187 11.0154 17.4999 11.0154C17.0812 11.0154 16.7301 11.157 16.4468 11.4403C16.1636 11.7236 16.0219 12.0746 16.0219 12.4934V18.3685C16.0219 18.5656 16.0589 18.7565 16.1328 18.9412C16.2067 19.126 16.3175 19.2923 16.4653 19.4401L20.6038 23.5785C20.8747 23.8495 21.2196 23.985 21.6384 23.985C22.0572 23.985 22.402 23.8495 22.673 23.5785C22.944 23.3075 23.0794 22.9627 23.0794 22.5439C23.0794 22.1251 22.944 21.7803 22.673 21.5093L18.978 17.8142ZM12.3084 30.6545C10.6949 29.9525 9.29078 29.0041 8.09605 27.8093C6.90132 26.6146 5.95292 25.2105 5.25087 23.597C4.54881 21.9835 4.19778 20.253 4.19778 18.4055C4.19778 16.5579 4.54881 14.8274 5.25087 13.2139C5.95292 11.6004 6.90132 10.1963 8.09605 9.00157C9.29078 7.80684 10.6949 6.85844 12.3084 6.15638C13.9219 5.45433 15.6524 5.1033 17.4999 5.1033C19.3475 5.1033 21.078 5.45433 22.6915 6.15638C24.305 6.85844 25.7091 7.80684 26.9038 9.00157C28.0985 10.1963 29.0469 11.6004 29.749 13.2139C30.4511 14.8274 30.8021 16.5579 30.8021 18.4055C30.8021 20.253 30.4511 21.9835 29.749 23.597C29.0469 25.2105 28.0985 26.6146 26.9038 27.8093C25.7091 29.0041 24.305 29.9525 22.6915 30.6545C21.078 31.3566 19.3475 31.7076 17.4999 31.7076C15.6524 31.7076 13.9219 31.3566 12.3084 30.6545ZM2.79366 9.98075C2.52269 9.70978 2.38721 9.36491 2.38721 8.94614C2.38721 8.52737 2.52269 8.1825 2.79366 7.91153L7.00601 3.69918C7.27698 3.42821 7.62185 3.29272 8.04062 3.29272C8.45939 3.29272 8.80427 3.42821 9.07524 3.69918C9.34621 3.97015 9.48169 4.31502 9.48169 4.73379C9.48169 5.15256 9.34621 5.49743 9.07524 5.7684L4.86289 9.98075C4.59192 10.2517 4.24705 10.3872 3.82827 10.3872C3.4095 10.3872 3.06463 10.2517 2.79366 9.98075ZM32.2062 9.98075C31.9352 10.2517 31.5904 10.3872 31.1716 10.3872C30.7528 10.3872 30.408 10.2517 30.137 9.98075L25.9246 5.7684C25.6537 5.49743 25.5182 5.15256 25.5182 4.73379C25.5182 4.31502 25.6537 3.97015 25.9246 3.69918C26.1956 3.42821 26.5405 3.29272 26.9592 3.29272C27.378 3.29272 27.7229 3.42821 27.9939 3.69918L32.2062 7.91153C32.4772 8.1825 32.6127 8.52737 32.6127 8.94614C32.6127 9.36491 32.4772 9.70978 32.2062 9.98075ZM17.4999 28.7516C20.3821 28.7516 22.827 27.7478 24.8346 25.7401C26.8422 23.7325 27.8461 21.2876 27.8461 18.4055C27.8461 15.5233 26.8422 13.0784 24.8346 11.0708C22.827 9.06315 20.3821 8.05933 17.4999 8.05933C14.6178 8.05933 12.1729 9.06315 10.1653 11.0708C8.15763 13.0784 7.15381 15.5233 7.15381 18.4055C7.15381 21.2876 8.15763 23.7325 10.1653 25.7401C12.1729 27.7478 14.6178 28.7516 17.4999 28.7516Z" fill="#8EB6FF"/>
</svg>
