<svg width="40" height="40" viewBox="0 0 40 40" fill="none" xmlns="http://www.w3.org/2000/svg">
<path d="M23.4659 37.6967V28.6216L19.6543 24.9915L18.2477 31.2534C18.1267 31.7374 17.862 32.1079 17.4536 32.3651C17.0452 32.6222 16.599 32.7054 16.115 32.6146L7.13059 30.7996C6.61633 30.7089 6.22307 30.4517 5.95082 30.0282C5.67856 29.6047 5.58781 29.1358 5.67856 28.6216C5.76931 28.1073 6.02644 27.7065 6.44995 27.4191C6.87346 27.1317 7.34234 27.0485 7.8566 27.1695L14.7537 28.6216L17.6578 13.9198L14.3907 15.1903V19.5464C14.3907 20.0607 14.2168 20.4917 13.8689 20.8396C13.521 21.1875 13.09 21.3614 12.5757 21.3614C12.0614 21.3614 11.6304 21.1875 11.2825 20.8396C10.9346 20.4917 10.7607 20.0607 10.7607 19.5464V14.0105C10.7607 13.6475 10.859 13.3223 11.0556 13.035C11.2522 12.7476 11.5169 12.5283 11.8497 12.377L17.93 9.7452C18.9888 9.29144 19.7678 8.9965 20.2669 8.86037C20.766 8.72425 21.2274 8.65618 21.6509 8.65618C22.2861 8.65618 22.876 8.82256 23.4205 9.15532C23.965 9.48807 24.4037 9.92671 24.7364 10.4712L26.5515 13.3753C27.1867 14.4038 28.0111 15.2962 29.0244 16.0524C30.0378 16.8087 31.2101 17.3078 32.5411 17.5499C33.0553 17.6406 33.4864 17.8675 33.8343 18.2305C34.1822 18.5935 34.3561 19.0321 34.3561 19.5464C34.3561 20.0607 34.1822 20.4842 33.8343 20.8169C33.4864 21.1497 33.0705 21.2858 32.5865 21.2253C30.9529 20.9833 29.4253 20.4766 28.0035 19.7052C26.5817 18.9338 25.3717 17.9734 24.3734 16.8238L23.2844 22.2689L26.5515 25.3545C26.733 25.536 26.8691 25.7402 26.9598 25.9671C27.0506 26.194 27.096 26.4284 27.096 26.6704V37.6967C27.096 38.211 26.922 38.6421 26.5741 38.99C26.2263 39.3378 25.7952 39.5118 25.2809 39.5118C24.7667 39.5118 24.3356 39.3378 23.9877 38.99C23.6398 38.6421 23.4659 38.211 23.4659 37.6967ZM21.8097 6.68233C21.0988 5.97144 20.7434 5.11686 20.7434 4.1186C20.7434 3.12033 21.0988 2.26575 21.8097 1.55486C22.5206 0.84397 23.3752 0.488525 24.3734 0.488525C25.3717 0.488525 26.2263 0.84397 26.9372 1.55486C27.648 2.26575 28.0035 3.12033 28.0035 4.1186C28.0035 5.11686 27.648 5.97144 26.9372 6.68233C26.2263 7.39322 25.3717 7.74866 24.3734 7.74866C23.3752 7.74866 22.5206 7.39322 21.8097 6.68233Z" fill="#8EB6FF"/>
</svg>
